<svg xmlns="http://www.w3.org/2000/svg" viewBox="-33.8500 -31.2000 132.3500 150.7500">
  <polygon points="0.000000,0.000000 80.000000,0.000000 80.000000,88.000000 0.000000,88.000000" fill="#ffffff" stroke="#404040" stroke-width="1.200000" />
  <polyline points="0.000000,0.000000 80.000000,0.000000" fill="none" stroke="#404040" stroke-width="0.800000" />
  <polyline points="0.000000,22.000000 80.000000,22.000000" fill="none" stroke="#404040" stroke-width="0.800000" />
  <polyline points="0.000000,44.000000 80.000000,44.000000" fill="none" stroke="#404040" stroke-width="0.800000" />
  <polyline points="0.000000,66.000000 80.000000,66.000000" fill="none" stroke="#404040" stroke-width="0.800000" />
  <polyline points="0.000000,0.000000 0.000000,88.000000" fill="none" stroke="#404040" stroke-width="0.640000" />
  <polyline points="16.000000,0.000000 16.000000,88.000000" fill="none" stroke="#404040" stroke-width="0.640000" />
  <polyline points="32.000000,0.000000 32.000000,88.000000" fill="none" stroke="#404040" stroke-width="0.640000" />
  <polyline points="48.000000,0.000000 48.000000,88.000000" fill="none" stroke="#404040" stroke-width="0.640000" />
  <polyline points="64.000000,0.000000 64.000000,88.000000" fill="none" stroke="#404040" stroke-width="0.640000" />
  <polyline points="80.000000,0.000000 80.000000,88.000000" fill="none" stroke="#404040" stroke-width="0.640000" />
  <circle cx="0.000000" cy="11.000000" r="4.500000" fill="#1440a6" stroke="#000000" stroke-width="0.000000" />
  <circle cx="0.000000" cy="77.000000" r="4.500000" fill="#3870d9" stroke="#000000" stroke-width="0.000000" />
  <circle cx="16.000000" cy="11.000000" r="4.500000" fill="#3870d9" stroke="#000000" stroke-width="0.000000" />
  <circle cx="16.000000" cy="55.000000" r="4.500000" fill="#3870d9" stroke="#000000" stroke-width="0.000000" />
  <circle cx="32.000000" cy="11.000000" r="4.500000" fill="#3870d9" stroke="#000000" stroke-width="0.000000" />
  <circle cx="32.000000" cy="55.000000" r="4.500000" fill="#1440a6" stroke="#000000" stroke-width="0.000000" />
  <circle cx="48.000000" cy="11.000000" r="4.500000" fill="#3870d9" stroke="#000000" stroke-width="0.000000" />
  <circle cx="48.000000" cy="55.000000" r="4.500000" fill="#3870d9" stroke="#000000" stroke-width="0.000000" />
  <circle cx="64.000000" cy="11.000000" r="4.500000" fill="#3870d9" stroke="#000000" stroke-width="0.000000" />
  <circle cx="64.000000" cy="77.000000" r="4.500000" fill="#3870d9" stroke="#000000" stroke-width="0.000000" />
  <circle cx="80.000000" cy="11.000000" r="4.500000" fill="#1440a6" stroke="#000000" stroke-width="0.000000" />
  <circle cx="80.000000" cy="77.000000" r="4.500000" fill="#3870d9" stroke="#000000" stroke-width="0.000000" />
  <text x="0.000000" y="102.300000" font-size="6.500000" fill="#333333" font-weight="normal" text-anchor="middle" dominant-baseline="central">E</text>
  <text x="16.000000" y="102.300000" font-size="6.500000" fill="#333333" font-weight="normal" text-anchor="middle" dominant-baseline="central">A</text>
  <text x="32.000000" y="102.300000" font-size="6.500000" fill="#333333" font-weight="normal" text-anchor="middle" dominant-baseline="central">D</text>
  <text x="48.000000" y="102.300000" font-size="6.500000" fill="#333333" font-weight="normal" text-anchor="middle" dominant-baseline="central">G</text>
  <text x="64.000000" y="102.300000" font-size="6.500000" fill="#333333" font-weight="normal" text-anchor="middle" dominant-baseline="central">B</text>
  <text x="80.000000" y="102.300000" font-size="6.500000" fill="#333333" font-weight="normal" text-anchor="middle" dominant-baseline="central">e</text>
  <text x="-14.000000" y="11.000000" font-size="6.500000" fill="#333333" font-weight="normal" text-anchor="middle" dominant-baseline="central">5fr</text>
  <text x="40.000000" y="-13.200000" font-size="8.000000" fill="#333333" font-weight="bold" text-anchor="middle" dominant-baseline="central">Am Pentatonic</text>
</svg>
