<svg xmlns="http://www.w3.org/2000/svg" viewBox="-84.8048 -54.0000 163.3048 127.5687">
  <rect x="-84.8048" y="-54.0000" width="163.3048" height="127.5687" fill="#d1c9bd" />
  <polygon points="-57.500000,-37.500000 64.500000,-37.500000 64.500000,44.500000 -57.500000,44.500000" fill="#1a1a1f" stroke="#000000" stroke-width="0.000000" />
  <polygon points="-60.000000,-40.000000 60.000000,-40.000000 60.000000,40.000000 -60.000000,40.000000" fill="#805426" stroke="#000000" stroke-width="0.000000" />
  <polygon points="-62.000000,-38.050000 58.000000,-38.050000 58.000000,-36.950000 -62.000000,-36.950000" fill="#5c3814" stroke="#000000" stroke-width="0.000000" />
  <polygon points="-59.000000,-35.350000 61.000000,-35.350000 61.000000,-34.650000 -59.000000,-34.650000" fill="#a17038" stroke="#000000" stroke-width="0.000000" />
  <polygon points="-61.000000,-33.750000 59.000000,-33.750000 59.000000,-33.250000 -61.000000,-33.250000" fill="#5c3814" stroke="#000000" stroke-width="0.000000" />
  <polygon points="-58.000000,33.200000 62.000000,33.200000 62.000000,33.800000 -58.000000,33.800000" fill="#5c3814" stroke="#000000" stroke-width="0.000000" />
  <polygon points="-61.000000,35.100000 59.000000,35.100000 59.000000,35.900000 -61.000000,35.900000" fill="#a17038" stroke="#000000" stroke-width="0.000000" />
  <polygon points="-59.000000,37.000000 61.000000,37.000000 61.000000,38.000000 -59.000000,38.000000" fill="#5c3814" stroke="#000000" stroke-width="0.000000" />
  <polygon points="-63.000000,-18.200000 57.000000,-18.200000 57.000000,-17.800000 -63.000000,-17.800000" fill="#5c3814" stroke="#000000" stroke-width="0.000000" />
  <polygon points="-58.000000,-0.250000 62.000000,-0.250000 62.000000,0.250000 -58.000000,0.250000" fill="#a17038" stroke="#000000" stroke-width="0.000000" />
  <polygon points="-61.000000,17.800000 59.000000,17.800000 59.000000,18.200000 -61.000000,18.200000" fill="#5c3814" stroke="#000000" stroke-width="0.000000" />
  <polygon points="-53.000000,-33.000000 53.000000,-33.000000 53.000000,33.000000 -53.000000,33.000000" fill="#1c2124" stroke="#000000" stroke-width="0.000000" />
  <polygon points="-52.000000,-32.000000 52.000000,-32.000000 52.000000,32.000000 -52.000000,32.000000" fill="#2b3036" stroke="#000000" stroke-width="0.000000" />
  <polyline points="-15.000000,-20.000000 29.000000,-20.000000" fill="none" stroke="#384047" stroke-width="0.300000" />
  <polyline points="8.000000,-8.000000 39.959583,-6.392182" fill="none" stroke="#384047" stroke-width="0.300000" />
  <polyline points="-12.000000,5.000000 25.973000,3.567773" fill="none" stroke="#384047" stroke-width="0.300000" />
  <polyline points="5.000000,18.000000 33.000000,18.000000" fill="none" stroke="#384047" stroke-width="0.300000" />
  <polyline points="-20.000000,26.000000 -0.039465,27.255810" fill="none" stroke="#384047" stroke-width="0.300000" />
  <polygon points="-65.078299,53.406171 -64.354151,54.393512 -63.724994,55.377188 -63.222376,56.307874 -62.871500,57.138902 -62.689961,57.828599 -62.686861,58.342382 -62.862357,58.654487 -63.207647,58.749264 -63.705419,58.621962 -64.330711,58.278962 -65.052168,57.737465 -65.833615,57.024623 -66.635865,56.176182 -67.418691,55.234685 -68.142838,54.247344 -68.771995,53.263667 -69.274613,52.332981 -69.625489,51.501954 -69.807029,50.812257 -69.810128,50.298474 -69.634633,49.986369 -69.289342,49.891591 -68.791571,50.018894 -68.166279,50.361894 -67.444821,50.903391 -66.663375,51.616233 -65.861125,52.464674" fill="#a39e94" stroke="#000000" stroke-width="0.000000" />
  <polygon points="-69.634633,49.986369 2.862357,-6.654487 9.634633,2.013631 -62.862357,58.654487" fill="#ede8de" stroke="#000000" stroke-width="0.000000" />
  <polygon points="-69.160573,50.593137 3.336416,-6.047719 4.758594,-4.227414 -67.738395,52.413442" fill="#fcfaf5" stroke="#000000" stroke-width="0.000000" />
  <polygon points="-64.826317,56.140733 7.670673,-0.500123 9.363742,1.666907 -63.133248,58.307762" fill="#b8b3a8" stroke="#000000" stroke-width="0.000000" />
  <polygon points="7.418691,-3.234685 8.142838,-2.247344 8.771995,-1.263667 9.274613,-0.332981 9.625489,0.498046 9.807029,1.187743 9.810128,1.701526 9.634633,2.013631 9.289342,2.108409 8.791571,1.981106 8.166279,1.638106 7.444821,1.096609 6.663375,0.383767 5.861125,-0.464674 5.078299,-1.406171 4.354151,-2.393512 3.724994,-3.377188 3.222376,-4.307874 2.871500,-5.138902 2.689961,-5.828599 2.686861,-6.342382 2.862357,-6.654487 3.207647,-6.749264 3.705419,-6.621962 4.330711,-6.278962 5.052168,-5.737465 5.833615,-5.024623 6.635865,-4.176182" fill="#e3ded4" stroke="#000000" stroke-width="0.000000" />
</svg>
